<mxfile host="app.diagrams.net" agent="Mozilla/5.0 (Windows NT 10.0; Win64; x64) AppleWebKit/537.36 (KHTML, like Gecko) Chrome/129.0.0.0 Safari/537.36" version="24.8.0">
  <diagram name="Page-1" id="2YBvvXClWsGukQMizWep">
    <mxGraphModel dx="926" dy="533" grid="1" gridSize="10" guides="1" tooltips="1" connect="1" arrows="1" fold="1" page="1" pageScale="1" pageWidth="850" pageHeight="1100" math="0" shadow="0">
      <root>
        <mxCell id="0" />
        <mxCell id="1" parent="0" />
        <mxCell id="aM9ryv3xv72pqoxQDRHE-1" value="user" style="shape=umlLifeline;perimeter=lifelinePerimeter;whiteSpace=wrap;html=1;container=0;dropTarget=0;collapsible=0;recursiveResize=0;outlineConnect=0;portConstraint=eastwest;newEdgeStyle={&quot;edgeStyle&quot;:&quot;elbowEdgeStyle&quot;,&quot;elbow&quot;:&quot;vertical&quot;,&quot;curved&quot;:0,&quot;rounded&quot;:0};fillColor=#1ba1e2;fontColor=#ffffff;strokeColor=#006EAF;" parent="1" vertex="1">
          <mxGeometry x="40" y="80" width="100" height="390" as="geometry" />
        </mxCell>
        <mxCell id="aM9ryv3xv72pqoxQDRHE-2" value="" style="html=1;points=[];perimeter=orthogonalPerimeter;outlineConnect=0;targetShapes=umlLifeline;portConstraint=eastwest;newEdgeStyle={&quot;edgeStyle&quot;:&quot;elbowEdgeStyle&quot;,&quot;elbow&quot;:&quot;vertical&quot;,&quot;curved&quot;:0,&quot;rounded&quot;:0};fillColor=#00FF00;fontColor=#ffffff;strokeColor=#2D7600;" parent="aM9ryv3xv72pqoxQDRHE-1" vertex="1">
          <mxGeometry x="45" y="70" width="10" height="270" as="geometry" />
        </mxCell>
        <mxCell id="aM9ryv3xv72pqoxQDRHE-5" value="OmniSpace" style="shape=umlLifeline;perimeter=lifelinePerimeter;whiteSpace=wrap;html=1;container=0;dropTarget=0;collapsible=0;recursiveResize=0;outlineConnect=0;portConstraint=eastwest;newEdgeStyle={&quot;edgeStyle&quot;:&quot;elbowEdgeStyle&quot;,&quot;elbow&quot;:&quot;vertical&quot;,&quot;curved&quot;:0,&quot;rounded&quot;:0};fillColor=#1ba1e2;fontColor=#ffffff;strokeColor=#006EAF;" parent="1" vertex="1">
          <mxGeometry x="290" y="80" width="100" height="390" as="geometry" />
        </mxCell>
        <mxCell id="aM9ryv3xv72pqoxQDRHE-6" value="" style="html=1;points=[];perimeter=orthogonalPerimeter;outlineConnect=0;targetShapes=umlLifeline;portConstraint=eastwest;newEdgeStyle={&quot;edgeStyle&quot;:&quot;elbowEdgeStyle&quot;,&quot;elbow&quot;:&quot;vertical&quot;,&quot;curved&quot;:0,&quot;rounded&quot;:0};fillColor=#00FF00;" parent="aM9ryv3xv72pqoxQDRHE-5" vertex="1">
          <mxGeometry x="45" y="80" width="10" height="240" as="geometry" />
        </mxCell>
        <mxCell id="aM9ryv3xv72pqoxQDRHE-8" value="Display Search Content" style="html=1;verticalAlign=bottom;endArrow=open;dashed=1;endSize=8;edgeStyle=elbowEdgeStyle;elbow=vertical;curved=0;rounded=0;strokeColor=#FFFFFF;" parent="1" source="aM9ryv3xv72pqoxQDRHE-6" edge="1">
          <mxGeometry relative="1" as="geometry">
            <mxPoint x="95" y="240" as="targetPoint" />
            <Array as="points">
              <mxPoint x="190" y="240" />
            </Array>
            <mxPoint x="325" y="240" as="sourcePoint" />
          </mxGeometry>
        </mxCell>
        <mxCell id="aM9ryv3xv72pqoxQDRHE-10" value="" style="html=1;verticalAlign=bottom;endArrow=open;dashed=1;endSize=8;edgeStyle=elbowEdgeStyle;elbow=horizontal;curved=0;rounded=0;strokeColor=#FFFFFF;" parent="1" target="aM9ryv3xv72pqoxQDRHE-6" edge="1">
          <mxGeometry relative="1" as="geometry">
            <mxPoint x="336" y="190" as="targetPoint" />
            <Array as="points">
              <mxPoint x="96" y="190" />
            </Array>
            <mxPoint x="336" y="190" as="sourcePoint" />
          </mxGeometry>
        </mxCell>
        <mxCell id="L9LZ-k_6zLOk1CvhENu7-12" value="Click Search icon" style="edgeLabel;html=1;align=center;verticalAlign=middle;resizable=0;points=[];" vertex="1" connectable="0" parent="aM9ryv3xv72pqoxQDRHE-10">
          <mxGeometry x="0.5198" y="-2" relative="1" as="geometry">
            <mxPoint x="-10" y="-12" as="offset" />
          </mxGeometry>
        </mxCell>
        <mxCell id="L9LZ-k_6zLOk1CvhENu7-1" value="" style="shape=umlActor;verticalLabelPosition=bottom;verticalAlign=top;html=1;outlineConnect=0;" vertex="1" parent="1">
          <mxGeometry x="75" y="20" width="30" height="60" as="geometry" />
        </mxCell>
        <mxCell id="L9LZ-k_6zLOk1CvhENu7-4" value="Crypto API" style="shape=umlLifeline;perimeter=lifelinePerimeter;whiteSpace=wrap;html=1;container=0;dropTarget=0;collapsible=0;recursiveResize=0;outlineConnect=0;portConstraint=eastwest;newEdgeStyle={&quot;edgeStyle&quot;:&quot;elbowEdgeStyle&quot;,&quot;elbow&quot;:&quot;vertical&quot;,&quot;curved&quot;:0,&quot;rounded&quot;:0};fillColor=#1ba1e2;fontColor=#ffffff;strokeColor=#006EAF;" vertex="1" parent="1">
          <mxGeometry x="556" y="80" width="100" height="390" as="geometry" />
        </mxCell>
        <mxCell id="L9LZ-k_6zLOk1CvhENu7-5" value="" style="html=1;points=[];perimeter=orthogonalPerimeter;outlineConnect=0;targetShapes=umlLifeline;portConstraint=eastwest;newEdgeStyle={&quot;edgeStyle&quot;:&quot;elbowEdgeStyle&quot;,&quot;elbow&quot;:&quot;vertical&quot;,&quot;curved&quot;:0,&quot;rounded&quot;:0};fillColor=#00FF00;" vertex="1" parent="L9LZ-k_6zLOk1CvhENu7-4">
          <mxGeometry x="45" y="230" width="10" height="90" as="geometry" />
        </mxCell>
        <mxCell id="L9LZ-k_6zLOk1CvhENu7-7" value="" style="html=1;verticalAlign=bottom;endArrow=open;dashed=1;endSize=8;edgeStyle=elbowEdgeStyle;elbow=vertical;curved=0;rounded=0;strokeColor=#FFFFFF;" edge="1" parent="1" target="aM9ryv3xv72pqoxQDRHE-6">
          <mxGeometry relative="1" as="geometry">
            <mxPoint x="335" y="290" as="targetPoint" />
            <Array as="points">
              <mxPoint x="95" y="290" />
            </Array>
            <mxPoint x="335" y="290" as="sourcePoint" />
          </mxGeometry>
        </mxCell>
        <mxCell id="L9LZ-k_6zLOk1CvhENu7-9" value="Return Cryptodata" style="html=1;verticalAlign=bottom;endArrow=open;dashed=1;endSize=8;edgeStyle=elbowEdgeStyle;elbow=horizontal;curved=0;rounded=0;strokeColor=#FFFFFF;exitX=0.7;exitY=0.678;exitDx=0;exitDy=0;exitPerimeter=0;" edge="1" parent="1" source="L9LZ-k_6zLOk1CvhENu7-5">
          <mxGeometry relative="1" as="geometry">
            <mxPoint x="344" y="370" as="targetPoint" />
            <Array as="points" />
            <mxPoint x="578" y="370" as="sourcePoint" />
          </mxGeometry>
        </mxCell>
        <mxCell id="L9LZ-k_6zLOk1CvhENu7-10" value="Display Result" style="html=1;verticalAlign=bottom;endArrow=open;dashed=1;endSize=8;edgeStyle=elbowEdgeStyle;elbow=vertical;curved=0;rounded=0;strokeColor=#FFFFFF;" edge="1" parent="1" source="aM9ryv3xv72pqoxQDRHE-6">
          <mxGeometry relative="1" as="geometry">
            <mxPoint x="94" y="390" as="targetPoint" />
            <Array as="points">
              <mxPoint x="189" y="390" />
            </Array>
            <mxPoint x="324" y="390" as="sourcePoint" />
          </mxGeometry>
        </mxCell>
        <mxCell id="L9LZ-k_6zLOk1CvhENu7-16" value="Enter Specific Crypto" style="text;html=1;align=center;verticalAlign=middle;resizable=0;points=[];autosize=1;fillColor=none;strokeColor=none;" vertex="1" parent="1">
          <mxGeometry x="140" y="268" width="140" height="30" as="geometry" />
        </mxCell>
        <mxCell id="L9LZ-k_6zLOk1CvhENu7-17" value="" style="html=1;verticalAlign=bottom;endArrow=open;dashed=1;endSize=8;edgeStyle=elbowEdgeStyle;elbow=vertical;curved=0;rounded=0;strokeColor=#FFFFFF;fillColor=#000000;" edge="1" parent="1" target="L9LZ-k_6zLOk1CvhENu7-4">
          <mxGeometry relative="1" as="geometry">
            <mxPoint x="580" y="340" as="targetPoint" />
            <Array as="points">
              <mxPoint x="340" y="340" />
            </Array>
            <mxPoint x="580" y="340" as="sourcePoint" />
          </mxGeometry>
        </mxCell>
        <mxCell id="L9LZ-k_6zLOk1CvhENu7-18" value="Request a Real-time data for Specific Crypto" style="text;html=1;align=center;verticalAlign=middle;resizable=0;points=[];autosize=1;" vertex="1" parent="1">
          <mxGeometry x="340" y="279" width="260" height="30" as="geometry" />
        </mxCell>
        <mxCell id="L9LZ-k_6zLOk1CvhENu7-19" value="" style="shape=mxgraph.sysml.x;" vertex="1" parent="1">
          <mxGeometry x="75" y="451" width="30" height="30" as="geometry" />
        </mxCell>
        <mxCell id="L9LZ-k_6zLOk1CvhENu7-20" value="" style="shape=mxgraph.sysml.x;" vertex="1" parent="1">
          <mxGeometry x="325" y="450" width="30" height="30" as="geometry" />
        </mxCell>
        <mxCell id="L9LZ-k_6zLOk1CvhENu7-21" value="" style="shape=mxgraph.sysml.x;" vertex="1" parent="1">
          <mxGeometry x="591" y="450" width="30" height="30" as="geometry" />
        </mxCell>
      </root>
    </mxGraphModel>
  </diagram>
</mxfile>
